<svg xmlns="http://www.w3.org/2000/svg" version="1.1" xmlns:xlink="http://www.w3.org/1999/xlink" viewBox="0 0 200 200"><rect width="200" height="200" fill="url('#gradient')"></rect><defs><linearGradient id="gradient" gradientTransform="rotate(196 0.5 0.5)"><stop offset="0%" stop-color="#e8d4de"></stop><stop offset="100%" stop-color="#f7f7f7"></stop></linearGradient></defs><g><g fill="#d13a80" transform="matrix(1.559654763919445,0,0,1.559654763919445,9.677437068176744,111.70509161289866)" stroke="#d21d81" stroke-width="0.2"><path d="M10.11-14.22L12.09-5.30L13.72-14.22L17.12-14.22L14.10 0L10.55 0L8.64-8.11L6.78 0L3.23 0L0.21-14.22L3.61-14.22L5.24-5.30L7.20-14.22L10.11-14.22ZM27.23 0L23.94 0Q23.76-0.32 23.62-0.95L23.62-0.95Q22.71 0.20 21.08 0.20L21.08 0.20Q19.59 0.20 18.54-0.71Q17.50-1.61 17.50-2.98L17.50-2.98Q17.50-4.70 18.77-5.58Q20.04-6.46 22.46-6.46L22.46-6.46L23.48-6.46L23.48-7.01Q23.48-8.47 22.22-8.47L22.22-8.47Q21.04-8.47 21.04-7.31L21.04-7.31L17.75-7.31Q17.75-8.85 19.06-9.80Q20.36-10.76 22.38-10.76Q24.40-10.76 25.58-9.78Q26.75-8.79 26.78-7.07L26.78-7.07L26.78-2.39Q26.80-0.94 27.23-0.17L27.23-0.17L27.23 0ZM21.88-2.15L21.88-2.15Q22.49-2.15 22.90-2.41Q23.30-2.68 23.48-3.01L23.48-3.01L23.48-4.70L22.52-4.70Q20.80-4.70 20.80-3.15L20.80-3.15Q20.80-2.71 21.10-2.43Q21.41-2.15 21.88-2.15ZM32.63 0L29.33 0L29.33-8.28L27.79-8.28L27.79-10.57L29.33-10.57L29.33-11.41Q29.33-13.21 30.39-14.21Q31.46-15.21 33.38-15.21L33.38-15.21Q34.08-15.21 34.92-15L34.92-15L34.93-12.58Q34.63-12.67 34.12-12.67L34.12-12.67Q32.63-12.67 32.63-11.38L32.63-11.38L32.63-10.57L34.69-10.57L34.69-8.28L32.63-8.28L32.63 0ZM35.44-4.82L35.43-5.38Q35.43-6.96 36.04-8.20Q36.66-9.43 37.81-10.10Q38.96-10.76 40.52-10.76L40.52-10.76Q42.89-10.76 44.26-9.29Q45.63-7.82 45.63-5.29L45.63-5.29L45.63-5.18Q45.63-2.71 44.25-1.25Q42.88 0.20 40.54 0.20L40.54 0.20Q38.28 0.20 36.91-1.16Q35.55-2.51 35.44-4.82L35.44-4.82ZM38.73-5.77L38.72-5.18Q38.72-3.71 39.18-3.03Q39.64-2.34 40.54-2.34L40.54-2.34Q42.29-2.34 42.33-5.05L42.33-5.05L42.33-5.38Q42.33-8.22 40.52-8.22L40.52-8.22Q38.87-8.22 38.73-5.77L38.73-5.77ZM53.47 0L53.37-1.14Q52.32 0.20 50.55 0.20L50.55 0.20Q48.81 0.20 47.92-0.82Q47.02-1.83 47.02-3.72L47.02-3.72L47.02-10.57L50.31-10.57L50.31-3.70Q50.31-2.34 51.63-2.34L51.63-2.34Q52.76-2.34 53.24-3.15L53.24-3.15L53.24-10.57L56.55-10.57L56.55 0L53.47 0ZM61.83-15L61.83 0L58.53 0L58.53-15L61.83-15ZM73.10 0L69.80 0Q69.63-0.32 69.49-0.95L69.49-0.95Q68.58 0.20 66.95 0.20L66.95 0.20Q65.46 0.20 64.41-0.71Q63.37-1.61 63.37-2.98L63.37-2.98Q63.37-4.70 64.64-5.58Q65.91-6.46 68.33-6.46L68.33-6.46L69.35-6.46L69.35-7.01Q69.35-8.47 68.09-8.47L68.09-8.47Q66.91-8.47 66.91-7.31L66.91-7.31L63.62-7.31Q63.62-8.85 64.93-9.80Q66.23-10.76 68.25-10.76Q70.27-10.76 71.45-9.78Q72.62-8.79 72.65-7.07L72.65-7.07L72.65-2.39Q72.67-0.94 73.10-0.17L73.10-0.17L73.10 0ZM67.74-2.15L67.74-2.15Q68.36-2.15 68.76-2.41Q69.17-2.68 69.35-3.01L69.35-3.01L69.35-4.70L68.39-4.70Q66.67-4.70 66.67-3.15L66.67-3.15Q66.67-2.71 66.97-2.43Q67.28-2.15 67.74-2.15ZM80-2.97L80-2.97Q80-3.39 79.56-3.64Q79.12-3.90 77.89-4.17Q76.66-4.44 75.86-4.89Q75.06-5.33 74.64-5.97Q74.22-6.60 74.22-7.42L74.22-7.42Q74.22-8.88 75.42-9.82Q76.62-10.76 78.56-10.76L78.56-10.76Q80.65-10.76 81.92-9.81Q83.19-8.87 83.19-7.32L83.19-7.32L79.89-7.32Q79.89-8.59 78.55-8.59L78.55-8.59Q78.04-8.59 77.69-8.31Q77.33-8.02 77.33-7.59L77.33-7.59Q77.33-7.15 77.76-6.88Q78.19-6.60 79.14-6.43Q80.08-6.25 80.79-6.01L80.79-6.01Q83.17-5.19 83.17-3.07L83.17-3.07Q83.17-1.62 81.89-0.71Q80.61 0.20 78.56 0.20L78.56 0.20Q77.21 0.20 76.14-0.29Q75.08-0.78 74.48-1.62Q73.89-2.46 73.89-3.39L73.89-3.39L76.96-3.39Q76.98-2.66 77.45-2.32Q77.92-1.98 78.65-1.98L78.65-1.98Q79.33-1.98 79.66-2.26Q80-2.53 80-2.97ZM87.93-15L87.93-9.43Q88.98-10.76 90.63-10.76L90.63-10.76Q92.37-10.76 93.26-9.73Q94.15-8.69 94.17-6.67L94.17-6.67L94.17 0L90.87 0L90.87-6.59Q90.87-7.43 90.53-7.83Q90.19-8.22 89.37-8.22L89.37-8.22Q88.35-8.22 87.93-7.58L87.93-7.58L87.93 0L84.64 0L84.64-15L87.93-15ZM101.11 0.20L101.11 0.20Q98.68 0.20 97.18-1.25Q95.67-2.71 95.67-5.03L95.67-5.03L95.67-5.30Q95.67-6.92 96.27-8.16Q96.88-9.40 98.03-10.08Q99.18-10.76 100.76-10.76L100.76-10.76Q102.99-10.76 104.28-9.38Q105.57-8.00 105.57-5.53L105.57-5.53L105.57-4.25L99.02-4.25Q99.20-3.36 99.79-2.85Q100.39-2.34 101.34-2.34L101.34-2.34Q102.90-2.34 103.78-3.44L103.78-3.44L105.28-1.66Q104.67-0.81 103.54-0.31Q102.41 0.20 101.11 0.20ZM100.74-8.22L100.74-8.22Q99.30-8.22 99.02-6.31L99.02-6.31L102.34-6.31L102.34-6.56Q102.36-7.35 101.94-7.79Q101.52-8.22 100.74-8.22ZM112.42-2.97L112.42-2.97Q112.42-3.39 111.98-3.64Q111.54-3.90 110.31-4.17Q109.08-4.44 108.28-4.89Q107.48-5.33 107.06-5.97Q106.64-6.60 106.64-7.42L106.64-7.42Q106.64-8.88 107.84-9.82Q109.04-10.76 110.99-10.76L110.99-10.76Q113.08-10.76 114.35-9.81Q115.62-8.87 115.62-7.32L115.62-7.32L112.31-7.32Q112.31-8.59 110.98-8.59L110.98-8.59Q110.46-8.59 110.11-8.31Q109.76-8.02 109.76-7.59L109.76-7.59Q109.76-7.15 110.19-6.88Q110.62-6.60 111.56-6.43Q112.50-6.25 113.21-6.01L113.21-6.01Q115.60-5.19 115.60-3.07L115.60-3.07Q115.60-1.62 114.31-0.71Q113.03 0.20 110.99 0.20L110.99 0.20Q109.63 0.20 108.56-0.29Q107.50-0.78 106.90-1.62Q106.31-2.46 106.31-3.39L106.31-3.39L109.38-3.39Q109.40-2.66 109.87-2.32Q110.34-1.98 111.07-1.98L111.07-1.98Q111.75-1.98 112.08-2.26Q112.42-2.53 112.42-2.97Z"></path></g></g></svg>